HIERARCHY
ROOT hip
{
  OFFSET 5.51535 103.731 -2.80141
  CHANNELS 6 Xposition Yposition Zposition Zrotation Xrotation Yrotation
  JOINT abdomen
  {
    OFFSET 0 -1.186 -1.5018
    CHANNELS 6 Xposition Yposition Zposition Zrotation Xrotation Yrotation
    JOINT abdomen2
    {
      OFFSET 0 9.964 0.2134
      CHANNELS 6 Xposition Yposition Zposition Zrotation Xrotation Yrotation
      JOINT chest
      {
        OFFSET 0 13.134 -3.2573
        CHANNELS 6 Xposition Yposition Zposition Zrotation Xrotation Yrotation
        JOINT neck
        {
          OFFSET 0 20.686 -1.6905
          CHANNELS 6 Xposition Yposition Zposition Zrotation Xrotation Yrotation
          JOINT head
          {
            OFFSET 0 7.23801 -0.1237
            CHANNELS 6 Xposition Yposition Zposition Zrotation Xrotation Yrotation
            End Site
            {
              OFFSET 0 0 0
            }
          }
        }
        JOINT lCollar
        {
          OFFSET 1.7069 20.075 5.0056
          CHANNELS 6 Xposition Yposition Zposition Zrotation Xrotation Yrotation
          JOINT lShldr
          {
            OFFSET 13.6458 -0.0470195 -4.849
            CHANNELS 6 Xposition Yposition Zposition Zrotation Xrotation Yrotation
            JOINT lForeArm
            {
              OFFSET 28.3255 -0.97589 2.2888
              CHANNELS 6 Xposition Yposition Zposition Zrotation Xrotation Yrotation
              JOINT lHand
              {
                OFFSET 22.1583 -0.529998 10.8316
                CHANNELS 6 Xposition Yposition Zposition Zrotation Xrotation Yrotation
                JOINT lThumb1
                {
                  OFFSET 0.786 0.111997 2.5817
                  CHANNELS 6 Xposition Yposition Zposition Zrotation Xrotation Yrotation
                  JOINT lThumb2
                  {
                    OFFSET 0.360097 -0.877999 4.2331
                    CHANNELS 6 Xposition Yposition Zposition Zrotation Xrotation Yrotation
                    JOINT lThumb2_End
                    {
                      OFFSET 1.8127 -1.21601 2.2227
                      CHANNELS 6 Xposition Yposition Zposition Zrotation Xrotation Yrotation
                      End Site
                      {
                        OFFSET 0.0180981 -0.012195 0.0222007
                      }
                    }
                  }
                }
                JOINT lCarpal1
                {
                  OFFSET 0.9571 1.114 1.7695
                  CHANNELS 6 Xposition Yposition Zposition Zrotation Xrotation Yrotation
                  JOINT lIndex1
                  {
                    OFFSET 4.12461 0.486992 4.1451
                    CHANNELS 6 Xposition Yposition Zposition Zrotation Xrotation Yrotation
                    JOINT lIndex2
                    {
                      OFFSET 3.4052 -1.45401 2.7682
                      CHANNELS 6 Xposition Yposition Zposition Zrotation Xrotation Yrotation
                      JOINT lIndex2_End
                      {
                        OFFSET 1.45309 -1.79499 1.2713
                        CHANNELS 6 Xposition Yposition Zposition Zrotation Xrotation Yrotation
                        End Site
                        {
                          OFFSET 0.0144979 -0.0179083 0.0126995
                        }
                      }
                    }
                  }
                  JOINT lMid1
                  {
                    OFFSET 5.6954 0.209987 2.1184
                    CHANNELS 6 Xposition Yposition Zposition Zrotation Xrotation Yrotation
                    JOINT lMid2
                    {
                      OFFSET 3.9766 -1.53999 2.3863
                      CHANNELS 6 Xposition Yposition Zposition Zrotation Xrotation Yrotation
                      JOINT lMid2_End
                      {
                        OFFSET 1.4042 -1.926 1.125
                        CHANNELS 6 Xposition Yposition Zposition Zrotation Xrotation Yrotation
                        End Site
                        {
                          OFFSET 0.013999 -0.0193044 0.011301
                        }
                      }
                    }
                  }
                }
                JOINT lCarpal2
                {
                  OFFSET 2.0956 0.66 -0.3894
                  CHANNELS 6 Xposition Yposition Zposition Zrotation Xrotation Yrotation
                  JOINT lRing1
                  {
                    OFFSET 5.0395 -0.090013 2.4971
                    CHANNELS 6 Xposition Yposition Zposition Zrotation Xrotation Yrotation
                    JOINT lRing2
                    {
                      OFFSET 3.7921 -1.55199 1.4806
                      CHANNELS 6 Xposition Yposition Zposition Zrotation Xrotation Yrotation
                      JOINT lRing2_End
                      {
                        OFFSET 1.4655 -1.808 0.9609
                        CHANNELS 6 Xposition Yposition Zposition Zrotation Xrotation Yrotation
                        End Site
                        {
                          OFFSET 0.0147015 -0.0181014 0.00959957
                        }
                      }
                    }
                  }
                  JOINT lPinky1
                  {
                    OFFSET 4.9141 -1.269 0.3591
                    CHANNELS 6 Xposition Yposition Zposition Zrotation Xrotation Yrotation
                    JOINT lPinky2
                    {
                      OFFSET 3.1477 -1.685 0.8462
                      CHANNELS 6 Xposition Yposition Zposition Zrotation Xrotation Yrotation
                      JOINT lPinky2_End
                      {
                        OFFSET 0.805498 -1.58501 0.795499
                        CHANNELS 6 Xposition Yposition Zposition Zrotation Xrotation Yrotation
                        End Site
                        {
                          OFFSET 0.00809703 -0.0157944 0.00799848
                        }
                      }
                    }
                  }
                }
              }
            }
          }
        }
        JOINT rCollar
        {
          OFFSET -1.7069 20.075 5.0056
          CHANNELS 6 Xposition Yposition Zposition Zrotation Xrotation Yrotation
          JOINT rShldr
          {
            OFFSET -13.6458 -0.0470107 -4.849
            CHANNELS 6 Xposition Yposition Zposition Zrotation Xrotation Yrotation
            JOINT rForeArm
            {
              OFFSET -28.3255 -0.975895 2.2888
              CHANNELS 6 Xposition Yposition Zposition Zrotation Xrotation Yrotation
              JOINT rHand
              {
                OFFSET -22.1583 -0.530007 10.8316
                CHANNELS 6 Xposition Yposition Zposition Zrotation Xrotation Yrotation
                JOINT rThumb1
                {
                  OFFSET -0.785997 0.112005 2.5817
                  CHANNELS 6 Xposition Yposition Zposition Zrotation Xrotation Yrotation
                  JOINT rThumb2
                  {
                    OFFSET -0.360106 -0.877994 4.2331
                    CHANNELS 6 Xposition Yposition Zposition Zrotation Xrotation Yrotation
                    JOINT rThumb2_End
                    {
                      OFFSET -1.8127 -1.216 2.2227
                      CHANNELS 6 Xposition Yposition Zposition Zrotation Xrotation Yrotation
                      End Site
                      {
                        OFFSET -0.0180972 -0.0121973 0.0222005
                      }
                    }
                  }
                }
                JOINT rCarpal1
                {
                  OFFSET -0.9571 1.114 1.7695
                  CHANNELS 6 Xposition Yposition Zposition Zrotation Xrotation Yrotation
                  JOINT rIndex1
                  {
                    OFFSET -4.1246 0.487011 4.1451
                    CHANNELS 6 Xposition Yposition Zposition Zrotation Xrotation Yrotation
                    JOINT rIndex2
                    {
                      OFFSET -3.4052 -1.45401 2.7682
                      CHANNELS 6 Xposition Yposition Zposition Zrotation Xrotation Yrotation
                      JOINT rIndex2_End
                      {
                        OFFSET -1.4531 -1.795 1.2713
                        CHANNELS 6 Xposition Yposition Zposition Zrotation Xrotation Yrotation
                        End Site
                        {
                          OFFSET -0.0145077 -0.0180048 0.0127017
                        }
                      }
                    }
                  }
                  JOINT rMid1
                  {
                    OFFSET -5.6954 0.210002 2.1184
                    CHANNELS 6 Xposition Yposition Zposition Zrotation Xrotation Yrotation
                    JOINT rMid2
                    {
                      OFFSET -3.9766 -1.54 2.3863
                      CHANNELS 6 Xposition Yposition Zposition Zrotation Xrotation Yrotation
                      JOINT rMid2_End
                      {
                        OFFSET -1.4042 -1.926 1.125
                        CHANNELS 6 Xposition Yposition Zposition Zrotation Xrotation Yrotation
                        End Site
                        {
                          OFFSET -0.0139948 -0.0192916 0.0112994
                        }
                      }
                    }
                  }
                }
                JOINT rCarpal2
                {
                  OFFSET -2.0956 0.66 -0.3894
                  CHANNELS 6 Xposition Yposition Zposition Zrotation Xrotation Yrotation
                  JOINT rRing1
                  {
                    OFFSET -5.03951 -0.0899879 2.4971
                    CHANNELS 6 Xposition Yposition Zposition Zrotation Xrotation Yrotation
                    JOINT rRing2
                    {
                      OFFSET -3.7921 -1.55201 1.4806
                      CHANNELS 6 Xposition Yposition Zposition Zrotation Xrotation Yrotation
                      JOINT rRing2_End
                      {
                        OFFSET -1.4655 -1.808 0.960901
                        CHANNELS 6 Xposition Yposition Zposition Zrotation Xrotation Yrotation
                        End Site
                        {
                          OFFSET -0.0146934 -0.0180999 0.00959832
                        }
                      }
                    }
                  }
                  JOINT rPinky1
                  {
                    OFFSET -4.91411 -1.26899 0.359202
                    CHANNELS 6 Xposition Yposition Zposition Zrotation Xrotation Yrotation
                    JOINT rPinky2
                    {
                      OFFSET -3.14769 -1.68501 0.846199
                      CHANNELS 6 Xposition Yposition Zposition Zrotation Xrotation Yrotation
                      JOINT rPinky2_End
                      {
                        OFFSET -0.805498 -1.585 0.7955
                        CHANNELS 6 Xposition Yposition Zposition Zrotation Xrotation Yrotation
                        End Site
                        {
                          OFFSET -0.00810035 -0.0158035 0.00800029
                        }
                      }
                    }
                  }
                }
              }
            }
          }
        }
      }
    }
  }
  JOINT lThigh
  {
    OFFSET 8.367 -8.2066 0.5982
    CHANNELS 6 Xposition Yposition Zposition Zrotation Xrotation Yrotation
    JOINT lShin
    {
      OFFSET 2.1923 -43.463 -0.4932
      CHANNELS 6 Xposition Yposition Zposition Zrotation Xrotation Yrotation
      JOINT lFoot
      {
        OFFSET 0.733301 -45.8593 -2.6451
        CHANNELS 6 Xposition Yposition Zposition Zrotation Xrotation Yrotation
        End Site
        {
          OFFSET 2.6618 -4.2699 12.3931
        }
      }
    }
  }
  JOINT rThigh
  {
    OFFSET -8.367 -8.2066 0.5982
    CHANNELS 6 Xposition Yposition Zposition Zrotation Xrotation Yrotation
    JOINT rShin
    {
      OFFSET -2.1923 -43.463 -0.4931
      CHANNELS 6 Xposition Yposition Zposition Zrotation Xrotation Yrotation
      JOINT rFoot
      {
        OFFSET -0.733299 -45.8593 -2.6451
        CHANNELS 6 Xposition Yposition Zposition Zrotation Xrotation Yrotation
        End Site
        {
          OFFSET -2.6618 -4.2699 12.3931
        }
      }
    }
  }
}
MOTION
Frames:	4
Frame Time:	0.0333333
9.96328 104.036 -0.896241 -3.57169 -3.45558 -8.29221 -1.19095e-006 -1.18599 -1.5018 2.41265 0.29565 -2.28392 -3.31556e-007 9.964 0.2134 4.83522 0.494705 -4.57834 1.18397e-007 13.134 -3.2573 4.83521 0.494706 -4.57834 -1.30788e-005 20.686 -1.69052 2.16999 -0.0875491 5.28922 -9.65156e-006 7.238 -0.123703 6.05969 2.94767 10.5489 1.7069 20.075 5.0056 11.1633 -6.01073 -2.23565 13.6458 -0.047011 -4.849 -82.9357 8.61972 9.62921 28.3255 -0.975901 2.2888 -28.2 10.996 -64.4726 22.1583 -0.529988 10.8316 -44.7633 -60.2369 -1.46281 0.786005 0.112 2.5817 0.886959 0.54906 2.54872 0.360098 -0.877996 4.2331 -2.16678 -0.184501 -3.96238 1.8127 -1.21601 2.2227 -0.983409 -0.102415 -1.80025 0.9571 1.114 1.7695 -1.14301e-015 0 -7.95139e-016 4.1246 0.486989 4.1451 17.3613 -6.91084 -3.56721 3.4052 -1.45401 2.7682 10.6694 -5.19085 -3.96236 1.4531 -1.79499 1.2713 13.0974 -6.4901 -4.74099 5.6954 0.20999 2.1184 16.3502 -7.86973 -5.327 3.9766 -1.53999 2.3863 10.6732 -5.74043 -3.99445 1.4042 -1.926 1.125 13.4961 -7.40357 -4.88774 2.0956 0.66 -0.3894 -1.14301e-015 0 -7.95139e-016 5.0395 -0.090013 2.4971 13.4721 -8.31946 -5.76084 3.7921 -1.55199 1.4806 12.5455 -7.47288 -5.32179 1.4655 -1.808 0.9609 13.0763 -7.81354 -5.5123 4.9141 -1.269 0.3591 12.643 -8.64956 -5.73167 3.1477 -1.68501 0.846201 13.3119 -8.48396 -5.45172 0.805499 -1.58501 0.795499 12.8529 -8.18669 -5.30043 -1.7069 20.075 5.0056 9.34365 -0.958453 -7.8657 -13.6458 -0.0470033 -4.84901 65.0562 -15.0832 -21.3915 -28.3255 -0.975897 2.2888 31.9054 -9.5054 85.3522 -22.1583 -0.530008 10.8316 -8.52243 -51.7901 17.4156 -0.786002 0.112008 2.5817 2.01732 -1.58043 5.93166 -0.360105 -0.877992 4.2331 4.87916 -3.29843 13.7031 -1.81269 -1.216 2.2227 12.6319 -5.74355 33.0411 -0.9571 1.114 1.7695 -3.18055e-015 0 6.36111e-015 -4.12461 0.487011 4.1451 58.968 12.108 -15.6517 -3.4052 -1.45401 2.7682 47.6339 11.209 -11.8578 -1.4531 -1.795 1.2713 64.9568 12.3093 -17.6942 -5.69541 0.210004 2.1184 49.7378 4.73807 -16.2552 -3.9766 -1.54 2.3863 38.0135 11.3105 -9.18708 -1.4042 -1.926 1.125 55.248 13.8293 -15.1689 -2.0956 0.66 -0.3894 -3.18055e-015 0 6.36111e-015 -5.03951 -0.0899911 2.49711 44.7965 -1.39815 -22.2718 -3.7921 -1.55201 1.4806 33.9181 11.1745 -9.53144 -1.4655 -1.808 0.960901 51.0003 14.0517 -16.1276 -4.91411 -1.26899 0.359203 44.2695 -3.11524 -28.8399 -3.1477 -1.68501 0.846199 33.6957 12.1623 -9.33147 -0.805501 -1.585 0.795502 50.8088 15.5224 -16.0723 8.36701 -8.2066 0.598199 4.8204 2.01228 0.573439 2.1923 -43.463 -0.4932 1.02257 5.99029 4.70627 0.733302 -45.8593 -2.6451 0.448955 -3.27475 0.611856 -8.36702 -8.20661 0.598201 3.5447 2.2713 6.36571 -2.19493 -43.4631 -0.471161 1.14105 -0.0308292 4.68363 -0.733299 -45.8593 -2.6451 2.72968 1.67208 -0.959215 
9.98382 104.035 -0.894652 -3.6957 -3.44505 -8.35548 -3.39713e-007 -1.186 -1.5018 2.43684 0.327282 -2.27491 2.10987e-007 9.964 0.2134 4.88482 0.557378 -4.56174 -3.44971e-007 13.134 -3.2573 4.88483 0.557378 -4.56174 -3.72361e-008 20.686 -1.6905 2.18168 -0.155292 5.30293 -1.18083e-006 7.23801 -0.123699 6.05812 2.8867 10.5683 1.7069 20.075 5.0056 11.1633 -6.01073 -2.23568 13.6458 -0.0470185 -4.849 -82.8876 8.61288 9.78594 28.3255 -0.975909 2.2888 -28.0905 11.5343 -64.0245 22.1583 -0.529986 10.8316 -44.9858 -60.3399 -1.64857 0.786002 0.111995 2.5817 1.13269 0.64379 3.14095 0.360097 -0.877999 4.2331 -2.25147 -0.18866 -4.11702 1.8127 -1.21601 2.2227 -0.926618 -0.0973395 -1.69638 0.9571 1.114 1.7695 -2.03754e-015 -7.95139e-016 -0 4.1246 0.486993 4.1451 16.4529 -6.19665 -3.05538 3.4052 -1.45401 2.7682 10.49 -5.09646 -3.9029 1.4531 -1.79499 1.2713 12.4469 -6.13825 -4.53735 5.6954 0.209987 2.1184 15.686 -7.32937 -5.10937 3.9766 -1.53999 2.3863 10.2386 -5.48921 -3.85047 1.4042 -1.926 1.125 12.9369 -7.0699 -4.71678 2.0956 0.66 -0.3894 -2.03754e-015 -7.95139e-016 -0 5.0395 -0.0900161 2.4971 12.9471 -8.00006 -5.58475 3.7921 -1.55199 1.4806 12.0236 -7.13309 -5.12854 1.4655 -1.808 0.9609 12.5808 -7.4814 -5.32847 4.9141 -1.269 0.359101 12.103 -8.34693 -5.60142 3.1477 -1.685 0.8462 12.8473 -8.16105 -5.29061 0.805498 -1.58501 0.7955 12.353 -7.81938 -5.11651 -1.7069 20.075 5.0056 9.34362 -0.958412 -7.86554 -13.6458 -0.0470039 -4.84901 65.1218 -15.1751 -21.7608 -28.3255 -0.9759 2.2888 31.7089 -9.28599 85.0695 -22.1583 -0.530011 10.8316 -8.49922 -51.9308 17.3668 -0.786001 0.112004 2.5817 1.97532 -1.55363 5.82003 -0.360105 -0.877996 4.2331 4.8434 -3.28005 13.6088 -1.8127 -1.216 2.2227 12.4395 -5.71633 32.5778 -0.9571 1.114 1.7695 -7.95139e-015 6.36111e-015 -1.59028e-015 -4.1246 0.487009 4.1451 59.3358 12.123 -15.7771 -3.4052 -1.454 2.7682 47.9706 11.2469 -11.9676 -1.4531 -1.795 1.2713 65.3593 12.3141 -17.8324 -5.6954 0.210002 2.1184 50.0708 4.77042 -16.3441 -3.9766 -1.54 2.3863 38.3233 11.3717 -9.28786 -1.4042 -1.926 1.125 55.6269 13.864 -15.3071 -2.0956 0.66 -0.3894 -7.95139e-015 6.36111e-015 -1.59028e-015 -5.03951 -0.089986 2.4971 45.1157 -1.38175 -22.3383 -3.7921 -1.55201 1.4806 34.2152 11.2416 -9.63899 -1.4655 -1.808 0.960902 51.367 14.0913 -16.2764 -4.91411 -1.26899 0.359202 44.5887 -3.13139 -28.9023 -3.14769 -1.68501 0.846198 33.9923 12.2381 -9.44005 -0.805498 -1.58499 0.795497 51.1776 15.5717 -16.2261 8.36701 -8.20662 0.598199 4.93297 1.91974 0.54822 2.1923 -43.463 -0.4932 1.03291 6.21243 4.75489 0.733301 -45.8593 -2.6451 0.433826 -3.38937 0.645193 -8.36703 -8.20662 0.598202 3.66623 2.33126 6.36073 -2.19605 -43.4632 -0.461983 1.12698 -0.127693 4.72894 -0.733302 -45.8594 -2.6451 2.74239 1.72126 -0.945503 
10.0024 104.033 -0.89318 -3.82263 -3.43545 -8.42709 -4.74216e-007 -1.186 -1.5018 2.4623 0.360169 -2.26603 1.98096e-007 9.964 0.2134 4.93702 0.622438 -4.54552 -6.47841e-007 13.134 -3.2573 4.93702 0.622438 -4.54551 -1.97698e-005 20.686 -1.6905 2.19243 -0.22465 5.32105 -5.9982e-006 7.23801 -0.1237 6.05309 2.82568 10.5927 1.7069 20.075 5.0056 11.1633 -6.01072 -2.23565 13.6458 -0.0470206 -4.84901 -82.8404 8.61164 9.94319 28.3255 -0.975911 2.28881 -27.9587 12.1715 -63.476 22.1583 -0.529989 10.8316 -45.2604 -60.4657 -1.87827 0.786004 0.111999 2.5817 1.38577 0.746725 3.76094 0.360098 -0.877997 4.2331 -2.33617 -0.192584 -4.27166 1.8127 -1.21601 2.2227 -0.869832 -0.092168 -1.59252 0.9571 1.114 1.7695 -2.13694e-015 1.59028e-015 -0 4.12461 0.486994 4.1451 15.4971 -5.45413 -2.51114 3.4052 -1.454 2.7682 10.2941 -4.99365 -3.83768 1.4531 -1.79499 1.2713 11.7955 -5.78873 -4.32984 5.6954 0.209988 2.1184 14.9883 -6.76679 -4.87713 3.9766 -1.53999 2.3863 9.78321 -5.22744 -3.69775 1.4042 -1.926 1.125 12.3771 -6.73789 -4.54269 2.0956 0.66 -0.3894 -2.13694e-015 1.59028e-015 -0 5.0395 -0.0900122 2.4971 12.3968 -7.66797 -5.39731 3.7921 -1.55199 1.4806 11.4765 -6.77935 -4.92312 1.4655 -1.808 0.960899 12.0264 -7.12771 -5.12632 4.9141 -1.269 0.359101 11.5369 -8.0327 -5.46168 3.1477 -1.685 0.8462 12.3517 -7.81844 -5.11624 0.805501 -1.585 0.7955 11.8125 -7.44797 -4.92335 -1.7069 20.075 5.0056 9.34358 -0.958408 -7.8655 -13.6458 -0.0470109 -4.849 65.1908 -15.2828 -22.1619 -28.3255 -0.975892 2.2888 31.4851 -9.05386 84.7391 -22.1583 -0.530009 10.8316 -8.47091 -52.1034 17.307 -0.786002 0.112008 2.5817 1.92749 -1.52292 5.69331 -0.360105 -0.877994 4.2331 4.80767 -3.2616 13.5146 -1.8127 -1.216 2.2227 12.2211 -5.6835 32.0514 -0.9571 1.114 1.7695 1.59028e-015 0 3.18055e-015 -4.12461 0.487011 4.1451 59.6576 12.1354 -15.8867 -3.4052 -1.454 2.7682 48.2652 11.2796 -12.0639 -1.4531 -1.795 1.2713 65.6945 12.3174 -17.9475 -5.69541 0.210003 2.1184 50.3621 4.79812 -16.422 -3.9766 -1.54 2.3863 38.5943 11.4248 -9.37626 -1.4042 -1.926 1.125 55.9425 13.8923 -15.4223 -2.0956 0.66 -0.3894 1.59028e-015 0 3.18055e-015 -5.03951 -0.0899896 2.4971 45.395 -1.3666 -22.3958 -3.7921 -1.55201 1.4806 34.4751 11.2998 -9.73335 -1.4655 -1.808 0.9609 51.6725 14.1235 -16.4005 -4.91411 -1.26899 0.359201 44.8678 -3.14604 -28.9571 -3.1477 -1.68501 0.846198 34.2519 12.304 -9.53537 -0.805499 -1.58499 0.795499 51.4848 15.612 -16.3544 8.36701 -8.20661 0.598202 5.04763 1.83139 0.52157 2.1923 -43.463 -0.4932 1.04314 6.43306 4.8034 0.733299 -45.8593 -2.6451 0.416855 -3.50428 0.68247 -8.36703 -8.20661 0.598202 3.79057 2.37419 6.3565 -2.19499 -43.4631 -0.470989 1.11401 -0.211898 4.7786 -0.733302 -45.8594 -2.6451 2.75609 1.77701 -0.929939 
10.0225 104.032 -0.89177 -3.95847 -3.42632 -8.50428 4.03493e-007 -1.186 -1.5018 2.48671 0.393571 -2.25702 3.00203e-007 9.96399 0.2134 4.98715 0.688557 -4.52909 4.00177e-007 13.134 -3.2573 4.98715 0.688556 -4.5291 -1.22387e-006 20.6862 -1.69052 2.21117 -0.292711 5.34127 -1.09182e-005 7.23801 -0.123704 6.05367 2.76617 10.6192 1.7069 20.075 5.0056 11.1633 -6.01074 -2.23567 13.6458 -0.0470092 -4.849 -82.7801 8.60991 10.107 28.3255 -0.975889 2.2888 -27.8083 12.8995 -62.8314 22.1583 -0.529985 10.8316 -45.5825 -60.6112 -2.14805 0.786003 0.111996 2.5817 1.64244 0.855805 4.40362 0.360097 -0.877999 4.2331 -2.42893 -0.196617 -4.44096 1.8127 -1.21601 2.2227 -0.813054 -0.0868964 -1.48866 0.9571 1.114 1.7695 3.19298e-015 0 7.95139e-016 4.1246 0.486989 4.1451 14.5015 -4.69049 -1.93803 3.4052 -1.454 2.7682 10.0982 -4.89108 -3.77212 1.4531 -1.79499 1.2713 11.1044 -5.42098 -4.10576 5.6954 0.209991 2.1184 14.2628 -6.18722 -4.63166 3.9766 -1.53999 2.3863 9.31095 -4.95757 -3.53745 1.4042 -1.92599 1.125 11.7694 -6.37978 -4.35033 2.0956 0.66 -0.3894 3.19298e-015 0 7.95139e-016 5.0395 -0.0900109 2.4971 11.8258 -7.32628 -5.19977 3.7921 -1.55199 1.4806 10.9088 -6.41495 -4.70689 1.4655 -1.808 0.960899 11.4711 -6.77597 -4.92089 4.9141 -1.269 0.359101 10.9498 -7.70976 -5.31336 3.1477 -1.685 0.8462 11.8554 -7.47734 -4.93899 0.8055 -1.585 0.7955 11.2444 -7.06011 -4.717 -1.7069 20.075 5.0056 9.34357 -0.958414 -7.86551 -13.6458 -0.0470131 -4.849 65.2756 -15.4017 -22.5946 -28.3255 -0.975896 2.2888 31.2367 -8.80978 84.3585 -22.1583 -0.530012 10.8316 -8.43821 -52.304 17.2373 -0.786002 0.112007 2.5817 1.87391 -1.48846 5.55041 -0.360106 -0.877994 4.2331 4.76453 -3.23924 13.4007 -1.8127 -1.216 2.2227 11.9751 -5.6441 31.4579 -0.9571 1.114 1.7695 -2.38542e-015 -3.18055e-015 6.36111e-015 -4.1246 0.487009 4.1451 59.9239 12.1451 -15.9775 -3.4052 -1.45401 2.7682 48.5092 11.3062 -12.1437 -1.4531 -1.795 1.2713 65.972 12.3196 -18.0428 -5.6954 0.209998 2.1184 50.6032 4.82059 -16.4865 -3.9766 -1.54 2.3863 38.8188 11.4684 -9.44963 -1.4042 -1.926 1.125 56.2038 13.9152 -15.5179 -2.0956 0.66 -0.3894 -2.38542e-015 -3.18055e-015 6.36111e-015 -5.03951 -0.0899866 2.4971 45.6264 -1.35273 -22.4423 -3.7921 -1.552 1.4806 34.6904 11.3477 -9.8117 -1.4655 -1.80801 0.960902 51.9255 14.1497 -16.5034 -4.91411 -1.26899 0.359202 45.0988 -3.15859 -29.0026 -3.1477 -1.68501 0.846198 34.4668 12.3582 -9.6145 -0.805501 -1.585 0.795501 51.7392 15.6448 -16.4609 8.367 -8.2066 0.598201 5.17034 1.73386 0.493104 2.1923 -43.463 -0.4932 1.05488 6.67845 4.85842 0.733299 -45.8593 -2.6451 0.39746 -3.63078 0.723384 -8.36701 -8.20659 0.598201 3.92355 2.40604 6.35307 -2.19223 -43.463 -0.493688 1.1022 -0.288212 4.831 -0.733301 -45.8593 -2.6451 2.77069 1.83837 -0.913257 
